<?xml version="1.0" encoding="UTF-8" standalone="no"?>
<svg
   width="718.34198"
   height="329.55206"
   version="1.1"
   id="svg30"
   sodipodi:docname="logo.svg"
   inkscape:version="1.4 (e7c3feb100, 2024-10-09)"
   xmlns:inkscape="http://www.inkscape.org/namespaces/inkscape"
   xmlns:sodipodi="http://sodipodi.sourceforge.net/DTD/sodipodi-0.dtd"
   xmlns="http://www.w3.org/2000/svg"
   xmlns:svg="http://www.w3.org/2000/svg">
  <sodipodi:namedview
     id="namedview30"
     pagecolor="#ffffff"
     bordercolor="#000000"
     borderopacity="0.25"
     inkscape:showpageshadow="2"
     inkscape:pageopacity="0.0"
     inkscape:pagecheckerboard="0"
     inkscape:deskcolor="#d1d1d1"
     inkscape:zoom="0.73156308"
     inkscape:cx="375.90743"
     inkscape:cy="221.44365"
     inkscape:window-width="1896"
     inkscape:window-height="1016"
     inkscape:window-x="0"
     inkscape:window-y="0"
     inkscape:window-maximized="1"
     inkscape:current-layer="svg30" />
  <path
     fill="#f0965b"
     d="m 619.072,168.07607 c 14.553,0.186 50.16,-1.562 62.051,2.633 7.145,2.521 13.098,7.446 16.227,14.443 3.215,7.188 3.521,17.115 0.444,24.365 -3.824,9.01 -11.217,12.913 -19.769,16.352 4.016,2.522 7.434,5.121 10.189,9.064 6.248,8.941 13.223,34.588 16.903,46.04 -4.537,0.103 -19.536,1.161 -22.691,-0.354 -0.707,-0.339 -0.724,-1.064 -0.969,-1.752 -3.115,-9.491 -9.39,-34.913 -15.97,-41.176 -5.422,-5.162 -16.866,-3.899 -23.905,-3.878 l 0.002,47.267 -22.537,-0.033 c -0.588,-37.609 -0.215,-75.354 0.025,-112.971 z"
     id="path3" />
  <path
     fill="#fefefe"
     d="m 641.543,185.85507 c 8.124,-0.038 24.821,-1.827 31.17,3.051 3.252,2.498 4.925,6.582 5.305,10.583 0.453,4.773 -1.023,9.06 -3.932,12.779 -7.819,6.369 -23.01,4.196 -32.551,4.119 z"
     id="path4" />
  <path
     fill="#f0965b"
     d="m 30.332,167.99807 c 8.404,0.364 16.832,0.228 25.242,0.196 11.59,16.473 21.693,34.487 32.327,51.623 4.371,7.042 8.915,16.571 14.995,22.176 1.15,-24.556 -0.124,-49.345 0.337,-73.948 l 21.56,0.282 c -0.419,26.028 -0.105,52.122 -0.078,78.156 0.012,11.315 0.667,22.932 -0.092,34.198 -1.681,0.568 -3.534,0.409 -5.304,0.422 -5.772,0.01 -11.545,-0.014 -17.317,-0.072 -5.119,-6.359 -9.195,-14.235 -13.48,-21.214 l -24.474,-39.818 c -3.797,-6.134 -7.383,-12.848 -12.048,-18.334 -0.45,11.034 -0.141,22.2 -0.136,33.245 -0.084,15.385 -0.022,30.772 0.185,46.157 l -21.757,-0.017 c -0.017,-37.645 -0.718,-75.424 0.04,-113.052 z"
     id="path5" />
  <path
     fill="#090909"
     d="m 25.209,142.06407 c -2.49,-2.068 -4.372,-4.18 -6.044,-6.953 -3.955,-6.557 -6.613,-16.256 -4.581,-23.819 2.314,-8.611 12.352,-12.856002 19.46,-16.933002 1.331,1.287 2.675,1.86 4.364,2.582 -5.786,2.891 -13,5.733002 -17.606,10.338002 -3.054,3.055 -4.302,6.827 -4.265,11.096 0.08,9.197 3.443,17.378 10.122,23.717 56.734,0.757 113.573,0.096 170.319,0.095 l 515.173,0.086 -0.038,8.465 c -23.331,0.56 -46.762,0.145 -70.103,0.145 l -126.675,-0.003 -502.083,0.09 c -0.078,-2.95 0.035,-5.893 0.121,-8.842 3.946,0.022 7.891,0.001 11.836,-0.064 z"
     id="path6" />
  <defs
     id="defs7">
    <linearGradient
       id="gradient_0"
       gradientUnits="userSpaceOnUse"
       x1="552.18732"
       y1="451.30838"
       x2="380.86713"
       y2="264.24182"
       gradientTransform="translate(-164.261,-313.15193)">
      <stop
         offset="0"
         stop-color="#131314"
         id="stop6" />
      <stop
         offset="1"
         stop-color="#4F4C4D"
         id="stop7" />
    </linearGradient>
  </defs>
  <path
     fill="url(#gradient_0)"
     d="m 84.656,69.651068 c 31.892,-13.922 68.923,-13.973 103.139,-13.059 16.321,0.436 33.023,1.27 49.176,-1.44 25.306,-4.245 49.04,-17.332 72.846,-26.375 C 363.085,8.5430681 427.054,-5.9029319 484.22,2.3770681 c 14.228,2.061 27.767,5.752 41.33,10.4529999 -0.895,1.206 -1.686,2.269 -2.232,3.688 -13.372,-3.112 -26.714,-6.391 -40.412,-7.6919999 -57.68,-5.478 -121.715,13.1489999 -175.103,33.6859999 -8.356,3.214 -16.391,7.235 -24.636,10.718 -14.26,6.024 -29.59,11.145 -44.828,13.915 -16.162,2.937 -32.736,1.648 -49.045,0.976 -15.209,-0.627 -30.45,-1.154 -45.673,-0.673 -11.34,0.358 -23.073,1.693 -34.161,4.101 -5.653,1.227 -11.547,3.291 -17.205,4.176 -3.333,0.009 -6.03,1.282 -9.25,1.567 l 1.537,-1.319 c -0.23,-0.812 -0.417,-1.624 -0.593,-2.449 0.63,-1.409 1.301,-1.889 2.54,-2.708 0.145,-0.096 0.293,-0.189 0.44,-0.284 l -0.001,-0.534 z"
     id="path7"
     style="fill:url(#gradient_0)" />
  <path
     fill="#f0965b"
     d="m 415.34,253.87307 c 9.171,-0.753 17.989,0.025 25.831,5.245 7.564,5.036 11.893,13.028 13.548,21.795 2.189,11.597 0.999,25.917 -5.897,35.838 -5.101,7.339 -11.89,10.622 -20.411,12.207 -9.203,1.29 -18.853,0.618 -26.829,-4.634 -7.703,-5.072 -12.158,-13.094 -13.928,-22.001 -2.285,-11.502 -1.024,-25.642 5.797,-35.496 5.345,-7.723 12.939,-11.385 21.889,-12.954 z"
     id="path8" />
  <path
     fill="#fefefe"
     d="m 417.906,266.47707 c 4.297,-0.365 8.448,-0.217 12.357,1.838 4.521,2.377 7.412,6.629 8.856,11.441 2.478,8.259 2.438,20.944 -2.022,28.51 -2.881,4.886 -6.736,6.811 -11.982,8.226 -4.541,0.552 -9.13,0.383 -13.259,-1.786 -4.586,-2.41 -7.44,-6.805 -8.81,-11.7 -2.302,-8.228 -2.092,-20.801 2.446,-28.227 3.025,-4.951 7.024,-6.936 12.414,-8.302 z"
     id="path9" />
  <path
     fill="#f0965b"
     d="m 276.541,253.87707 c 8.913,-0.712 17.552,0.001 25.275,4.896 7.507,4.759 12.082,12.431 13.927,20.992 2.521,11.695 1.485,26.085 -5.243,36.274 -4.99,7.556 -11.793,11.077 -20.488,12.89 -9.531,1.353 -19.167,0.748 -27.398,-4.76 -7.594,-5.081 -12.154,-13.358 -13.74,-22.216 -2.078,-11.6 -0.882,-25.728 6.05,-35.598 5.289,-7.53 12.846,-11 21.617,-12.478 z"
     id="path10" />
  <path
     fill="#fefefe"
     d="m 278.879,266.48807 c 4.104,-0.282 7.87,-0.387 11.714,1.395 4.801,2.226 7.919,6.406 9.524,11.366 2.687,8.304 2.669,20.975 -1.619,28.716 -2.772,5.003 -6.562,7.156 -11.887,8.564 -4.508,0.477 -9.028,0.462 -13.186,-1.604 -4.581,-2.277 -7.491,-6.547 -8.89,-11.373 -2.386,-8.23 -2.336,-21.362 2.167,-28.818 2.951,-4.888 6.867,-6.879 12.177,-8.246 z"
     id="path11" />
  <path
     fill="#f0965b"
     d="m 213.792,254.74207 c 6.257,-0.143 12.557,0.045 18.817,0.084 -0.15,24.544 -0.128,49.089 0.066,73.633 -4.733,0.061 -9.466,0.084 -14.199,0.069 l -0.062,-30.108 c 0.065,-6.968 0.452,-14.154 -0.688,-21.039 -5.405,17.021 -12.549,33.852 -17.172,51.061 -4.129,0.174 -8.273,0.087 -12.405,0.062 -5.554,-13.265 -12.127,-40.118 -18.936,-50.318 0.404,16.739 -0.087,33.53 0.575,50.248 -4.568,0.151 -9.152,0.075 -13.722,0.071 0.227,-24.559 0.226,-49.12 -0.002,-73.679 6.365,-0.079 12.73,-0.087 19.095,-0.025 7.649,17.278 12.372,37.139 19.421,54.943 2.915,-5.959 4.778,-12.693 6.904,-18.984 4.06,-12.011 7.931,-24.12 12.308,-36.018 z"
     id="path12" />
  <defs
     id="defs13">
    <linearGradient
       id="gradient_1"
       gradientUnits="userSpaceOnUse"
       x1="737.92889"
       y1="305.60574"
       x2="664.71674"
       y2="457.43622"
       gradientTransform="translate(-164.261,-313.15193)">
      <stop
         offset="0"
         stop-color="#D36D2F"
         id="stop12" />
      <stop
         offset="1"
         stop-color="#E49B50"
         id="stop13" />
    </linearGradient>
  </defs>
  <path
     fill="url(#gradient_1)"
     d="m 362.94,71.593068 c 9.713,-1.269 19.713,-1.265 29.489,-2.107 21.746,-1.874 43.742,-4.33 65.261,-7.963 46.13,-7.789 92.065,-25.579 139.293,-23.874 19.369,0.692 38.551,4.045 57.006,9.964 10.361,3.331 21.021,8.055 31.729,9.931 8.829,1.548 17.123,-0.552 25.792,0.071 0.761,1.099 0.747,1.881 0.489,3.172 -0.845,4.241 -2.688,8.58 -3.846,12.773 -2.137,7.732 -1.858,15.204 -1.818,23.136 -4.806,-9.624 -4.384,-20.756 -1.836,-31.044 -5.708,0.52 -11.438,1.122 -17.175,0.786 -14.705,-0.862 -29.9,-6.42 -44.348,-9.481 -21.318,-4.517 -42.916,-7.474 -64.75,-6.783 -36.554,1.156 -72.817,11.517 -108.738,17.742 -27.707,4.801 -56.148,6.428 -84.223,7.454 -10.013,0.367 -20.127,1 -30.143,0.945 1.386,-0.875 1.223,-1.121 1.658,-2.732 1.799,-1.389 3.98,-1.573 6.16,-1.99 z"
     id="path13"
     style="fill:url(#gradient_1)" />
  <path
     fill="#f0965b"
     d="m 471.019,254.55107 c 11.798,0.55 24.655,-1.204 36.235,0.806 5.288,0.917 10.249,3.294 13.292,7.865 2.895,4.348 4.048,10.887 2.815,15.968 -1.654,6.821 -7.712,10.339 -13.223,13.81 9.815,6.43 13.512,24.439 17.237,35.436 -4.337,0.133 -11.27,1.138 -15.291,-0.294 -2.342,-6.782 -5.508,-22.803 -10.285,-27.144 -4.294,-3.902 -10.77,-3.089 -16.133,-3.01 l 0.147,30.494 -14.872,0.042 z"
     id="path14" />
  <path
     fill="#fefefe"
     d="m 485.685,266.24207 c 5.894,-0.112 15.991,-1.472 20.841,2.32 1.778,1.39 2.631,3.32 2.885,5.525 0.461,4.005 -0.318,6.613 -2.75,9.77 -6.037,3.303 -14.194,2.346 -20.937,2.334 z"
     id="path15" />
  <path
     fill="#f0965b"
     d="m 556.451,253.87607 c 0.864,-0.069 1.729,-0.127 2.595,-0.177 10.821,-0.604 19.679,1.25 27.957,8.601 -2.001,3.738 -4.62,7.291 -6.945,10.844 -5.212,-3.465 -10.317,-6.743 -16.796,-7.031 -3.643,-0.162 -8.85,0.371 -11.506,3.248 -1.417,1.535 -1.745,3.653 -1.644,5.68 0.492,9.873 24.46,8.104 33.561,16.336 4.132,3.737 6.173,9.078 6.308,14.595 0.151,6.18 -1.774,12.282 -6.162,16.726 -5.983,6.061 -13.964,6.804 -21.992,6.854 -8.097,-0.267 -15.561,-2.39 -22.388,-6.769 -2.113,-1.355 -4.985,-3.267 -5.285,-6.013 -0.353,-3.232 5.85,-8.697 8.046,-10.875 2.085,2.214 4.231,4.584 6.661,6.419 4.819,3.64 11.351,5.36 17.331,4.44 2.828,-0.435 5.553,-1.41 7.257,-3.84 1.487,-2.123 1.7,-5.547 1.055,-7.995 -1.995,-7.571 -21.981,-8.498 -29.945,-13.51 -4.317,-2.717 -7.577,-6.579 -8.523,-11.682 -0.95,-5.128 -0.062,-12.104 2.993,-16.433 4.118,-5.835 10.716,-8.15 17.422,-9.418 z"
     id="path16" />
  <path
     fill="#f0965b"
     d="m 405.632,171.29107 c 2.2,-0.285 4.678,-0.192 6.882,0.072 6.005,0.721 15.963,3.751 19.477,9.062 0.847,1.281 1.127,2.175 0.765,3.685 -0.547,2.283 -6.815,5.196 -8.87,6.401 -1.055,-1.443 -2.11,-3.007 -3.375,-4.274 -3.216,-3.22 -7.831,-4.219 -12.234,-4.201 -4.165,0.016 -8.14,1.453 -11.047,4.502 -4.541,4.764 -5.398,11.682 -5.348,17.987 0.049,6.099 1.073,13.225 5.73,17.594 3.246,3.044 7.396,3.832 11.729,3.728 3.299,-0.079 6.609,-0.901 8.912,-3.413 3.163,-3.45 3.075,-7.436 3.02,-11.795 -4.967,0.045 -9.942,0.261 -14.908,0.405 -0.064,-3.5 -0.022,-7.006 -0.02,-10.506 l 8.508,0.189 c 6.414,0.079 12.837,-0.057 19.254,-0.003 l -0.024,34.999 -12.403,0.013 c -0.048,-3.335 -0.205,-6.674 -0.316,-10.008 -0.752,1.356 -1.508,2.732 -2.348,4.034 -2.288,3.547 -5.858,5.851 -10,6.564 -6.444,1.109 -13.742,-0.38 -19.015,-4.261 -6.465,-4.759 -9.517,-12.308 -10.613,-20.018 -1.465,-10.315 -0.371,-22.367 6.311,-30.802 5.15,-6.501 11.986,-9.009 19.933,-9.954 z"
     id="path17" />
  <path
     fill="#f0965b"
     d="m 560.059,171.77007 c 5.279,0.462 10.656,0.317 15.955,0.357 l 22.025,63.392 c -4.502,0.228 -8.914,0.245 -13.417,0.055 -1.126,-3.718 -2.299,-11.382 -5.001,-14.111 -0.555,-0.561 -1.856,-0.399 -2.625,-0.442 -7.113,0.045 -14.227,0.02 -21.339,-0.076 -1.546,5.038 -3.257,9.971 -5.075,14.915 -4.268,0.011 -8.535,-0.118 -12.794,-0.387 7.915,-21.032 14.869,-42.481 22.271,-63.703 z"
     id="path18" />
  <path
     fill="#fefefe"
     d="m 566.862,185.14307 c 4.046,3.792 7.619,19.197 9.514,25.122 l -6.363,0.103 -10.609,0.152 c 1.849,-8.567 5.167,-16.892 7.458,-25.377 z"
     id="path19" />
  <path
     fill="#f0965b"
     d="m 153.304,171.98207 42.392,0.168 -0.073,10.463 -29.403,0.002 c -0.216,4.911 -0.146,9.822 -0.109,14.736 8.654,-0.053 17.308,-0.028 25.962,0.075 l -0.041,10.108 c -7.481,0.307 -18.856,-0.88 -25.726,0.602 l -0.356,0.863 0.013,16.114 c 10.182,-0.082 20.364,-0.032 30.545,0.151 l -0.025,10.484 -43.143,0.008 z"
     id="path20" />
  <path
     fill="#f0965b"
     d="m 469.693,171.94607 c 14.018,0.508 28.175,0.157 42.207,0.164 0.191,3.494 0.074,7.028 0.053,10.527 -9.92,-0.164 -19.862,-0.039 -29.785,-0.053 -0.054,4.95 -0.013,9.904 -0.01,14.854 l 25.927,-0.115 -0.096,10.542 c -6.22,-0.241 -19.924,-1.198 -25.535,0.276 l -0.34,0.809 -0.037,16.091 c 10.199,-0.048 20.398,0.022 30.596,0.21 l -0.036,10.358 c -14.352,0.501 -28.803,0.2 -43.163,0.061 -0.005,-21.227 -0.316,-42.505 0.219,-63.724 z"
     id="path21" />
  <path
     fill="#f0965b"
     d="m 264.238,172.12207 c 4.307,-0.141 8.558,-0.105 12.864,0.074 -6.462,9.902 -12.841,20.543 -17.99,31.184 5.624,9.833 13.582,21.297 18.129,31.354 l -0.416,0.681 -2.025,0.331 -10.267,0.051 c -4.826,-8.529 -9.564,-17.144 -14.986,-25.312 -4.791,8.42 -9.456,16.948 -14.536,25.197 -4.315,0.219 -8.576,0.086 -12.879,-0.247 6.77,-10.481 13.059,-21.648 18.924,-32.664 -5.981,-10.058 -12.605,-20.234 -17.589,-30.81 l 12.838,0.189 c 2.776,4.191 10.642,20.101 14.149,21.544 3.073,-1.035 11.267,-17.623 13.784,-21.572 z"
     id="path22" />
  <path
     fill="#f0965b"
     d="m 322.954,254.75507 h 57.353 c 0.043,4.072 -0.003,8.144 -0.138,12.214 -7.079,-0.139 -14.175,-0.033 -21.257,-0.015 l -0.005,40.218 0.063,21.323 c -4.917,0.154 -9.857,-0.004 -14.775,-0.06 0.127,-20.521 0.112,-41.042 -0.046,-61.562 l -21.139,0.079 c -0.148,-4.055 -0.058,-8.138 -0.056,-12.197 z"
     id="path23" />
  <path
     fill="#090909"
     d="m 0.17,290.50307 141.4,0.072 0.006,8.473 c -47.115,0.928 -94.439,0.059 -141.576,0.039 z"
     id="path24" />
  <path
     fill="#f0965b"
     d="m 301.724,172.05407 c 16.427,0.2 32.86,-0.135 49.289,0.071 l 0.007,10.426 c -6.088,0.108 -12.188,0.018 -18.277,10e-4 l -0.073,35.653 0.031,17.547 -12.701,-0.024 -0.124,-53.139 c -6.095,0.025 -12.191,0.017 -18.286,-0.024 z"
     id="path25" />
  <path
     fill="#090909"
     d="m 602.75,294.81207 115.592,0.08 -0.118,8.448 c -38.487,0.684 -77.034,-0.185 -115.534,0.205 -0.022,-2.909 0.038,-5.824 0.06,-8.733 z"
     id="path26" />
  <defs
     id="defs27">
    <linearGradient
       id="gradient_2"
       gradientUnits="userSpaceOnUse"
       x1="217.55884"
       y1="415.51062"
       x2="232.65961"
       y2="375.68546"
       gradientTransform="translate(-164.261,-313.15193)">
      <stop
         offset="0"
         stop-color="#393B3C"
         id="stop26" />
      <stop
         offset="1"
         stop-color="#63605F"
         id="stop27" />
    </linearGradient>
  </defs>
  <path
     fill="url(#gradient_2)"
     d="m 34.044,94.359068 c 10.237,-8.298 37.989,-20.19 50.612,-24.708 l 2.272,0.347 0.001,0.534 c -0.147,0.095 -0.295,0.188 -0.44,0.284 -1.239,0.819 -1.91,1.299 -2.54,2.708 0.176,0.825 0.363,1.637 0.593,2.449 l -1.537,1.319 c 3.22,-0.285 5.917,-1.558 9.25,-1.567 -18.403,6.209 -35.94,13.732 -53.847,21.216 -1.689,-0.722 -3.033,-1.295 -4.364,-2.582 z"
     id="path27"
     style="fill:url(#gradient_2)" />
  <defs
     id="defs29">
    <linearGradient
       id="gradient_3"
       gradientUnits="userSpaceOnUse"
       x1="496.48795"
       y1="399.56009"
       x2="482.88718"
       y2="373.22983"
       gradientTransform="translate(-164.261,-313.15193)">
      <stop
         offset="0"
         stop-color="#F0A447"
         id="stop28" />
      <stop
         offset="1"
         stop-color="#F4CEC4"
         id="stop29" />
    </linearGradient>
  </defs>
  <path
     fill="url(#gradient_3)"
     d="m 355.122,76.315068 c -11.171,0.052 -22.292,-0.141 -33.46,-0.326 -7.314,-0.121 -14.813,0.225 -22.009,-1.217 -1.791,-0.359 -5.199,-0.962 -6.197,-2.446 5.407,-2.115 32.517,-0.012 40.495,-0.054 9.672,-0.052 19.32,-0.594 28.989,-0.679 -2.18,0.417 -4.361,0.601 -6.16,1.99 -0.435,1.611 -0.272,1.857 -1.658,2.732 z"
     id="path29"
     style="fill:url(#gradient_3)" />
  <path
     fill="#090909"
     d="m 525.55,12.830068 c 14.112,5.269 29.351,9.942 42.664,17.021 -1.226,0.542 -10.855,-3.28 -12.715,-3.876 -10.653,-3.399 -21.383,-6.552 -32.181,-9.457 0.546,-1.419 1.337,-2.482 2.232,-3.688 z"
     id="path30" />
</svg>
