<?xml version="1.0" encoding="UTF-8" standalone="no"?>
<svg
   width="698.9325"
   height="151.03105"
   version="1.1"
   id="svg30"
   sodipodi:docname="logo_no_text.svg"
   inkscape:version="1.4 (e7c3feb100, 2024-10-09)"
   xmlns:inkscape="http://www.inkscape.org/namespaces/inkscape"
   xmlns:sodipodi="http://sodipodi.sourceforge.net/DTD/sodipodi-0.dtd"
   xmlns="http://www.w3.org/2000/svg"
   xmlns:svg="http://www.w3.org/2000/svg">
  <sodipodi:namedview
     id="namedview30"
     pagecolor="#ffffff"
     bordercolor="#000000"
     borderopacity="0.25"
     inkscape:showpageshadow="2"
     inkscape:pageopacity="0.0"
     inkscape:pagecheckerboard="0"
     inkscape:deskcolor="#d1d1d1"
     inkscape:zoom="1.3689473"
     inkscape:cx="364.51366"
     inkscape:cy="191.38794"
     inkscape:window-width="1896"
     inkscape:window-height="1016"
     inkscape:window-x="0"
     inkscape:window-y="0"
     inkscape:window-maximized="1"
     inkscape:current-layer="svg30" />
  <path
     fill="#090909"
     d="m 11.983176,142.06407 c -2.4900004,-2.068 -4.3720004,-4.18 -6.0440004,-6.953 -3.955,-6.557 -6.61299996,-16.256 -4.581,-23.819 2.314,-8.611 12.3520004,-12.856002 19.4600004,-16.933002 1.331,1.287 2.675,1.86 4.364,2.582 -5.786,2.891 -13,5.733002 -17.6060004,10.338002 -3.054,3.055 -4.302,6.827 -4.265,11.096 0.08,9.197 3.443,17.378 10.1220004,23.717 5.966705,0.0796 11.934572,0.14354 17.903369,0.19421 50.785098,0.43106 101.637605,-0.0983 152.415635,-0.0992 l 515.173,0.086 -0.038,8.465 c -23.331,0.56 -46.762,0.145 -70.103,0.145 l -126.675,-0.003 -502.08300436,0.09 c -0.078,-2.95 0.035,-5.893 0.121,-8.842 3.94599996,0.022 7.89099996,10e-4 11.83600036,-0.064 z"
     id="path6"
     sodipodi:nodetypes="ccccccccsccccccccc" />
  <defs
     id="defs7">
    <linearGradient
       id="gradient_0"
       gradientUnits="userSpaceOnUse"
       x1="552.18732"
       y1="451.30838"
       x2="380.86713"
       y2="264.24182"
       gradientTransform="translate(-177.48682,-313.15193)">
      <stop
         offset="0"
         stop-color="#131314"
         id="stop6" />
      <stop
         offset="1"
         stop-color="#4F4C4D"
         id="stop7" />
    </linearGradient>
  </defs>
  <path
     fill="url(#gradient_0)"
     d="m 71.430176,69.651068 c 31.892004,-13.922 68.923004,-13.973 103.139004,-13.059 16.321,0.436 33.023,1.27 49.176,-1.44 25.306,-4.245 49.04,-17.332 72.846,-26.375 53.268,-20.2339999 117.237,-34.6799999 174.403,-26.3999999 14.228,2.061 27.767,5.752 41.33,10.4529999 -0.895,1.206 -1.686,2.269 -2.232,3.688 -13.372,-3.112 -26.714,-6.391 -40.412,-7.6919999 -57.68,-5.478 -121.715,13.1489999 -175.103,33.6859999 -8.356,3.214 -16.391,7.235 -24.636,10.718 -14.26,6.024 -29.59,11.145 -44.828,13.915 -16.162,2.937 -32.736,1.648 -49.045,0.976 -15.209,-0.627 -30.45,-1.154 -45.673,-0.673 -11.34,0.358 -23.073,1.693 -34.161004,4.101 -5.653,1.227 -11.547,3.291 -17.205,4.176 -3.333,0.009 -6.03,1.282 -9.25,1.567 l 1.537,-1.319 c -0.23,-0.812 -0.417,-1.624 -0.593,-2.449 0.63,-1.409 1.301,-1.889 2.54,-2.708 0.145,-0.096 0.293,-0.189 0.44,-0.284 l -0.001,-0.534 z"
     id="path7"
     style="fill:url(#gradient_0)" />
  <defs
     id="defs13">
    <linearGradient
       id="gradient_1"
       gradientUnits="userSpaceOnUse"
       x1="737.92889"
       y1="305.60574"
       x2="664.71674"
       y2="457.43622"
       gradientTransform="translate(-177.48682,-313.15193)">
      <stop
         offset="0"
         stop-color="#D36D2F"
         id="stop12" />
      <stop
         offset="1"
         stop-color="#E49B50"
         id="stop13" />
    </linearGradient>
  </defs>
  <path
     fill="url(#gradient_1)"
     d="m 349.71418,71.593068 c 9.713,-1.269 19.713,-1.265 29.489,-2.107 21.746,-1.874 43.742,-4.33 65.261,-7.963 46.13,-7.789 92.065,-25.579 139.293,-23.874 19.369,0.692 38.551,4.045 57.006,9.964 10.361,3.331 21.021,8.055 31.729,9.931 8.829,1.548 17.123,-0.552 25.792,0.071 0.761,1.099 0.747,1.881 0.489,3.172 -0.845,4.241 -2.688,8.58 -3.846,12.773 -2.137,7.732 -1.858,15.204 -1.818,23.136 -4.806,-9.624 -4.384,-20.756 -1.836,-31.044 -5.708,0.52 -11.438,1.122 -17.175,0.786 -14.705,-0.862 -29.9,-6.42 -44.348,-9.481 -21.318,-4.517 -42.916,-7.474 -64.75,-6.783 -36.554,1.156 -72.817,11.517 -108.738,17.742 -27.707,4.801 -56.148,6.428 -84.223,7.454 -10.013,0.367 -20.127,1 -30.143,0.945 1.386,-0.875 1.223,-1.121 1.658,-2.732 1.799,-1.389 3.98,-1.573 6.16,-1.99 z"
     id="path13"
     style="fill:url(#gradient_1)" />
  <defs
     id="defs27">
    <linearGradient
       id="gradient_2"
       gradientUnits="userSpaceOnUse"
       x1="217.55884"
       y1="415.51062"
       x2="232.65961"
       y2="375.68546"
       gradientTransform="translate(-177.48682,-313.15193)">
      <stop
         offset="0"
         stop-color="#393B3C"
         id="stop26" />
      <stop
         offset="1"
         stop-color="#63605F"
         id="stop27" />
    </linearGradient>
  </defs>
  <path
     fill="url(#gradient_2)"
     d="m 20.818176,94.359068 c 10.237,-8.298 37.989,-20.19 50.612,-24.708 l 2.272,0.347 0.001,0.534 c -0.147,0.095 -0.295,0.188 -0.44,0.284 -1.239,0.819 -1.91,1.299 -2.54,2.708 0.176,0.825 0.363,1.637 0.593,2.449 l -1.537,1.319 c 3.22,-0.285 5.917,-1.558 9.25,-1.567 -18.403,6.209 -35.94,13.732 -53.847,21.216 -1.689,-0.722 -3.033,-1.295 -4.364,-2.582 z"
     id="path27"
     style="fill:url(#gradient_2)" />
  <defs
     id="defs29">
    <linearGradient
       id="gradient_3"
       gradientUnits="userSpaceOnUse"
       x1="496.48795"
       y1="399.56009"
       x2="482.88718"
       y2="373.22983"
       gradientTransform="translate(-177.48682,-313.15193)">
      <stop
         offset="0"
         stop-color="#F0A447"
         id="stop28" />
      <stop
         offset="1"
         stop-color="#F4CEC4"
         id="stop29" />
    </linearGradient>
  </defs>
  <path
     fill="url(#gradient_3)"
     d="m 341.89618,76.315068 c -11.171,0.052 -22.292,-0.141 -33.46,-0.326 -7.314,-0.121 -14.813,0.225 -22.009,-1.217 -1.791,-0.359 -5.199,-0.962 -6.197,-2.446 5.407,-2.115 32.517,-0.012 40.495,-0.054 9.672,-0.052 19.32,-0.594 28.989,-0.679 -2.18,0.417 -4.361,0.601 -6.16,1.99 -0.435,1.611 -0.272,1.857 -1.658,2.732 z"
     id="path29"
     style="fill:url(#gradient_3)" />
  <path
     fill="#090909"
     d="m 512.32418,12.830068 c 14.112,5.269 29.351,9.942 42.664,17.021 -1.226,0.542 -10.855,-3.28 -12.715,-3.876 -10.653,-3.399 -21.383,-6.552 -32.181,-9.457 0.546,-1.419 1.337,-2.482 2.232,-3.688 z"
     id="path30" />
</svg>
